<svg width="141" height="155" viewBox="0 0 141 155" fill="none" xmlns="http://www.w3.org/2000/svg">
<path d="M141 138.735C141 143.409 109.436 154.061 70.5 154.061C31.5639 154.061 0 143.409 0 138.735C0 134.061 31.5639 137.134 70.5 137.134C109.436 137.134 141 134.061 141 138.735Z" fill="#3F3D56"/>
<path opacity="0.1" d="M141 138.735C141 143.409 109.436 154.061 70.5 154.061C31.5639 154.061 0 143.409 0 138.735C0 134.061 31.5639 137.134 70.5 137.134C109.436 137.134 141 134.061 141 138.735Z" fill="black"/>
<path d="M20.0773 76.52C21.7154 76.52 23.0434 75.1887 23.0434 73.5464C23.0434 71.9042 21.7154 70.5729 20.0773 70.5729C18.4393 70.5729 17.1113 71.9042 17.1113 73.5464C17.1113 75.1887 18.4393 76.52 20.0773 76.52Z" fill="#6C63FF"/>
<path d="M33.0822 100.994C34.7203 100.994 36.0482 99.6631 36.0482 98.0209C36.0482 96.3787 34.7203 95.0474 33.0822 95.0474C31.4441 95.0474 30.1162 96.3787 30.1162 98.0209C30.1162 99.6631 31.4441 100.994 33.0822 100.994Z" fill="#6C63FF"/>
<path d="M23.0441 94.8186C24.6822 94.8186 26.0102 93.4873 26.0102 91.8451C26.0102 90.2028 24.6822 88.8715 23.0441 88.8715C21.4061 88.8715 20.0781 90.2028 20.0781 91.8451C20.0781 93.4873 21.4061 94.8186 23.0441 94.8186Z" fill="#6C63FF"/>
<path d="M23.9893 134.051C23.9369 133.966 22.7023 131.899 22.2743 127.607C21.8817 123.67 22.1342 117.034 25.5672 107.777C32.071 90.2395 24.0684 76.0895 23.9866 75.9486L24.3814 75.7189C24.4021 75.7547 26.4671 79.3624 27.687 85.1071C29.2988 92.7233 28.7119 100.642 25.995 107.936C19.5024 125.443 24.3293 133.731 24.3787 133.813L23.9893 134.051Z" fill="#CFCCE0"/>
<path d="M21.4471 75.1476C20.8154 75.1476 20.1978 74.9598 19.6725 74.6079C19.1472 74.256 18.7378 73.7559 18.4961 73.1708C18.2543 72.5856 18.1911 71.9417 18.3143 71.3206C18.4376 70.6994 18.7418 70.1288 19.1885 69.681C19.6352 69.2331 20.2043 68.9281 20.824 68.8046C21.4436 68.681 22.0858 68.7444 22.6695 68.9868C23.2531 69.2292 23.752 69.6396 24.103 70.1662C24.454 70.6928 24.6413 71.312 24.6413 71.9453C24.6403 72.7943 24.3035 73.6083 23.7047 74.2086C23.1059 74.8089 22.294 75.1466 21.4471 75.1476ZM21.4471 69.2005C20.9056 69.2005 20.3763 69.3615 19.926 69.6631C19.4758 69.9647 19.1249 70.3934 18.9177 70.8949C18.7104 71.3965 18.6562 71.9483 18.7619 72.4808C18.8675 73.0132 19.1283 73.5023 19.5111 73.8862C19.894 74.27 20.3819 74.5314 20.913 74.6374C21.4441 74.7433 21.9946 74.6889 22.4948 74.4812C22.9951 74.2734 23.4227 73.9216 23.7236 73.4702C24.0244 73.0188 24.185 72.4882 24.185 71.9453C24.1842 71.2176 23.8954 70.5199 23.3822 70.0054C22.8689 69.4908 22.173 69.2013 21.4471 69.2005Z" fill="#CFCCE0"/>
<path d="M30.801 85.8981C32.4391 85.8981 33.767 84.5668 33.767 82.9245C33.767 81.2823 32.4391 79.951 30.801 79.951C29.1629 79.951 27.835 81.2823 27.835 82.9245C27.835 84.5668 29.1629 85.8981 30.801 85.8981Z" fill="#CFCCE0"/>
<path d="M24.4129 93.4462C23.7812 93.4462 23.1636 93.2584 22.6383 92.9065C22.1131 92.5547 21.7036 92.0545 21.4619 91.4694C21.2201 90.8843 21.1569 90.2404 21.2801 89.6192C21.4034 88.9981 21.7076 88.4275 22.1543 87.9796C22.601 87.5318 23.1702 87.2268 23.7898 87.1032C24.4094 86.9797 25.0516 87.0431 25.6353 87.2855C26.2189 87.5278 26.7178 87.9383 27.0688 88.4649C27.4198 88.9915 27.6071 89.6106 27.6071 90.244C27.6061 91.093 27.2693 91.9069 26.6705 92.5073C26.0717 93.1076 25.2598 93.4453 24.4129 93.4462ZM24.4129 87.4992C23.8714 87.4992 23.3421 87.6602 22.8918 87.9618C22.4416 88.2634 22.0907 88.692 21.8835 89.1936C21.6762 89.6951 21.622 90.247 21.7277 90.7795C21.8333 91.3119 22.0941 91.801 22.477 92.1848C22.8599 92.5687 23.3477 92.8301 23.8788 92.936C24.4099 93.0419 24.9604 92.9876 25.4607 92.7798C25.9609 92.5721 26.3885 92.2203 26.6894 91.7689C26.9902 91.3175 27.1508 90.7868 27.1508 90.244C27.15 89.5163 26.8613 88.8186 26.348 88.304C25.8347 87.7894 25.1388 87.5 24.4129 87.4992V87.4992Z" fill="#CFCCE0"/>
<path d="M32.1698 99.622C31.538 99.622 30.9205 99.4342 30.3952 99.0823C29.8699 98.7305 29.4605 98.2303 29.2187 97.6452C28.977 97.0601 28.9137 96.4162 29.037 95.795C29.1602 95.1739 29.4644 94.6033 29.9111 94.1554C30.3579 93.7076 30.927 93.4026 31.5466 93.279C32.1662 93.1555 32.8085 93.2189 33.3921 93.4613C33.9758 93.7036 34.4746 94.1141 34.8256 94.6407C35.1766 95.1673 35.3639 95.7864 35.3639 96.4198C35.363 97.2688 35.0261 98.0827 34.4273 98.683C33.8285 99.2834 33.0166 99.6211 32.1698 99.622ZM32.1698 93.675C31.6283 93.675 31.0989 93.836 30.6487 94.1376C30.1984 94.4392 29.8475 94.8678 29.6403 95.3694C29.4331 95.8709 29.3789 96.4228 29.4845 96.9553C29.5901 97.4877 29.8509 97.9768 30.2338 98.3606C30.6167 98.7445 31.1045 99.0059 31.6356 99.1118C32.1667 99.2177 32.7172 99.1634 33.2175 98.9556C33.7178 98.7479 34.1454 98.3961 34.4462 97.9447C34.747 97.4933 34.9076 96.9626 34.9076 96.4198C34.9068 95.6921 34.6181 94.9944 34.1048 94.4798C33.5915 93.9652 32.8956 93.6758 32.1698 93.675Z" fill="#CFCCE0"/>
<path d="M22.1311 109C23.7691 109 25.0971 107.669 25.0971 106.027C25.0971 104.384 23.7691 103.053 22.1311 103.053C20.493 103.053 19.165 104.384 19.165 106.027C19.165 107.669 20.493 109 22.1311 109Z" fill="#CFCCE0"/>
<path d="M25.7812 134.161C25.7812 134.161 22.8152 126.841 31.7132 121.352L25.7812 134.161Z" fill="#CFCCE0"/>
<path d="M22.1335 134.028C22.1335 134.028 20.7836 126.244 10.3359 126.311L22.1335 134.028Z" fill="#CFCCE0"/>
<path d="M129.213 136.906H78.7284C78.7284 136.906 77.7051 121.859 83.7598 121.688C89.8146 121.517 89.1324 128.356 96.7222 118.952C104.312 109.547 113.522 110.06 114.716 115.617C115.91 121.175 112.413 125.62 118.809 124.252C125.205 122.884 134.415 126.475 129.213 136.906Z" fill="#6C63FF"/>
<path d="M103.119 136.909L102.948 136.902C103.346 126.995 105.415 120.63 107.081 117.035C108.89 113.131 110.634 111.551 110.651 111.535L110.765 111.663C110.747 111.678 109.024 113.243 107.23 117.12C105.573 120.7 103.515 127.039 103.119 136.909Z" fill="#F2F2F2"/>
<path d="M121.39 136.929L121.227 136.882C123.198 130.097 127.841 125.814 127.888 125.771L128.002 125.898C127.956 125.94 123.348 130.193 121.39 136.929Z" fill="#F2F2F2"/>
<path d="M86.6798 136.917L86.5108 136.894C87.1797 132.057 85.9715 128.305 84.84 126.009C83.6149 123.523 82.2171 122.165 82.2031 122.151L82.3211 122.028C82.3353 122.041 83.7547 123.42 84.9929 125.933C86.1349 128.251 87.3546 132.038 86.6798 136.917Z" fill="#F2F2F2"/>
<path d="M136.065 137.134H73.2828L73.2683 136.921C73.2322 136.391 72.4313 123.88 76.4748 119.416C77.3787 118.418 78.4676 117.894 79.7111 117.859C82.3468 117.784 84.0032 118.774 85.3391 119.568C87.8572 121.066 89.5207 122.055 95.5689 114.561C102.121 106.442 109.19 104.695 113.254 105.666C115.88 106.294 117.69 108.068 118.22 110.533C118.721 112.868 118.562 115.061 118.433 116.824C118.296 118.71 118.187 120.199 118.96 120.874C119.605 121.437 120.892 121.489 123.011 121.035C127.32 120.114 133.333 120.902 136.351 124.812C137.975 126.915 139.254 130.738 136.128 137.008L136.065 137.134ZM73.7112 136.677H135.782C138.112 131.938 138.185 127.934 135.991 125.092C133.222 121.505 127.413 120.562 123.106 121.483C120.804 121.975 119.433 121.894 118.66 121.219C117.716 120.394 117.831 118.804 117.978 116.791C118.104 115.057 118.261 112.9 117.774 110.63C117.283 108.343 115.597 106.697 113.149 106.111C109.214 105.17 102.342 106.895 95.9236 114.848C89.6275 122.65 87.7309 121.522 85.1064 119.961C83.754 119.157 82.2184 118.245 79.724 118.316C78.6093 118.348 77.6299 118.821 76.8126 119.723C73.1785 123.735 73.6222 134.985 73.7112 136.677Z" fill="#CFCCE0"/>
<path d="M70.5 147.199C109.436 147.199 141 143.409 141 138.735C141 134.061 109.436 130.272 70.5 130.272C31.5639 130.272 0 134.061 0 138.735C0 143.409 31.5639 147.199 70.5 147.199Z" fill="#3F3D56"/>
<path d="M72.0503 28.0228C72.0503 28.0228 68.5258 26.7609 66.26 31.8087C63.9943 36.8565 60.4697 42.4091 60.4697 42.4091L62.4838 42.9139C62.4838 42.9139 62.9872 39.3804 64.246 38.8756L63.7425 43.4186C63.7425 43.4186 78.8476 48.7188 85.6449 42.9139L85.3932 41.1471C85.3932 41.1471 86.4002 41.3995 86.4002 42.9139L87.1555 42.1567C87.1555 42.1567 86.4002 40.6423 84.1344 38.6232C82.6473 37.298 82.1362 34.7767 81.9606 33.2003C81.829 31.884 81.3037 30.6383 80.4536 29.6266C78.9479 27.8772 76.2042 26.0178 72.0503 28.0228Z" fill="#2F2E41"/>
<path d="M68.3326 47.8139L64.6821 43.2393L61.9442 33.8612L72.4394 22.6533C72.4394 22.6533 74.7209 13.9614 72.6675 14.4189C70.6141 14.8763 70.1578 21.2809 70.1578 21.2809L56.9248 31.5739C56.9248 31.5739 58.2937 45.984 62.1724 51.0162L65.1384 60.3943L68.3326 47.8139Z" fill="#FFB9B9"/>
<path d="M78.3716 47.8139L82.0221 43.2393L84.76 33.8612L74.2648 22.6533C74.2648 22.6533 71.9833 13.9614 74.0367 14.4189C76.0901 14.8763 76.5464 21.2809 76.5464 21.2809L89.7794 31.5739C89.7794 31.5739 88.4105 45.984 84.5318 51.0162L81.5658 60.3943L78.3716 47.8139Z" fill="#FFB9B9"/>
<path d="M73.352 43.9255C76.6281 43.9255 79.284 41.2629 79.284 37.9784C79.284 34.6939 76.6281 32.0313 73.352 32.0313C70.0758 32.0313 67.4199 34.6939 67.4199 37.9784C67.4199 41.2629 70.0758 43.9255 73.352 43.9255Z" fill="#FFB9B9"/>
<path d="M70.6142 41.1807C70.6142 41.1807 70.8424 45.9841 69.4734 47.5852C68.1045 49.1863 66.7356 57.4207 73.3521 57.6495C79.9686 57.8782 79.2841 50.7875 79.2841 50.7875L77.9152 46.899C77.9152 46.899 75.8618 43.9255 76.5463 41.1807H70.6142Z" fill="#FFB9B9"/>
<path d="M64.454 94.4755L69.3593 95.9623C69.3593 95.9623 73.3521 93.5606 73.3521 95.8479C73.3521 98.1353 71.9831 101.109 72.4394 103.167C72.8958 105.226 73.8084 110.258 72.4394 110.258C71.0705 110.258 68.3326 101.338 68.3326 101.338L63.7695 98.8215L64.454 94.4755Z" fill="#FFB9B9"/>
<path d="M70.6142 126.498L68.7889 133.589C68.7889 133.589 67.1918 135.648 68.7889 136.562C69.5383 136.992 70.0868 137.874 70.4579 138.69C70.7814 139.425 71.3226 140.042 72.0081 140.458C72.6937 140.874 73.4902 141.068 74.2896 141.014C75.0684 140.95 75.7244 140.641 75.8839 139.839C75.9281 139.587 75.9195 139.329 75.8586 139.081C75.7978 138.833 75.6861 138.6 75.5306 138.397C73.8476 136.117 73.4661 134.618 73.4661 134.618L74.1506 126.613L70.6142 126.498Z" fill="#FFB9B9"/>
<path d="M66.1961 39.0346C66.1961 39.0346 68.2101 36.2583 69.9724 35.7535C71.7346 35.2488 71.9864 32.7249 71.9864 32.7249C71.9864 32.7249 76.5179 37.7727 79.2872 38.025C82.0565 38.2774 79.539 31.9677 79.539 31.9677L74.5039 30.7057L69.7206 31.2105L65.9443 33.7344L66.1961 39.0346Z" fill="#2F2E41"/>
<path d="M62.4007 77.0918L61.488 78.9217C61.488 78.9217 39.357 86.0124 41.1822 92.6457C43.0074 99.2789 53.2744 97.449 53.2744 97.449L64.6822 99.5076L65.823 94.4755L57.8375 92.4169L71.5269 87.3848L71.9832 110.716L70.1579 127.413L74.721 127.871C74.721 127.871 79.7405 112.545 79.056 106.141C79.056 106.141 87.4977 80.0653 82.7065 76.1769C77.9152 72.2884 62.4007 77.0918 62.4007 77.0918Z" fill="#2F2E41"/>
<path d="M73.6189 50.7906L70.0588 46.4772L67.6475 47.5852L65.1378 55.5909C65.1378 55.5909 63.0844 59.4793 65.5941 63.5965C65.5941 63.5965 66.0504 66.3413 65.3659 67.0275C64.6815 67.7137 64.4533 72.0597 64.4533 72.0597L61.4873 77.778C61.4873 77.778 78.3708 80.7515 83.3902 76.6343C83.3902 76.6343 80.7563 66.8991 82.3534 63.9256C83.9505 60.9521 84.1786 56.3936 82.3534 54.335C80.5282 52.2764 78.5989 46.899 78.5989 46.899L77.494 46.1905L73.6189 50.7906Z" fill="#CFCCE0"/>
<path d="M86.9287 16.6402H84.7405V14.4465H84.5417V16.6402H82.3535V16.8395H84.5417V19.0333H84.7405V16.8395H86.9287V16.6402Z" fill="#CFCCE0"/>
<path d="M66.1328 12.0534H63.9446V9.85964H63.7458V12.0534H61.5576V12.2527H63.7458V14.4465H63.9446V12.2527H66.1328V12.0534Z" fill="#CFCCE0"/>
<path d="M76.1143 2.25429H73.9263V0.0605469H73.7273V2.25429H71.5391V2.45362H73.7273V4.64736H73.9263V2.45362H76.1143V2.25429Z" fill="#CFCCE0"/>
</svg>
