<svg width="200" height="142" viewBox="0 0 200 142" fill="none" xmlns="http://www.w3.org/2000/svg">
<g clip-path="url(#clip0)">
<path d="M106.491 62.2509L105.531 63.7327L118.353 71.9882L119.313 70.5064L106.491 62.2509Z" fill="#2F2E41"/>
<path d="M119.948 71.965C121.539 69.5099 122.33 67.1982 121.714 66.8018C121.098 66.4053 119.31 68.0742 117.719 70.5293C116.128 72.9844 115.337 75.2961 115.953 75.6926C116.569 76.0891 118.357 74.4202 119.948 71.965Z" fill="#2F2E41"/>
<path d="M107.126 63.7097C108.717 61.2545 109.508 58.9429 108.892 58.5464C108.276 58.1499 106.487 59.8188 104.896 62.2739C103.305 64.7291 102.515 67.0408 103.131 67.4372C103.746 67.8337 105.535 66.1648 107.126 63.7097Z" fill="#2F2E41"/>
<path d="M148.916 141.061C177.129 141.061 200.001 139.322 200.001 137.177C200.001 135.032 177.129 133.293 148.916 133.293C120.703 133.293 97.832 135.032 97.832 137.177C97.832 139.322 120.703 141.061 148.916 141.061Z" fill="#E6E6E6"/>
<path d="M51.0843 122.446C79.2973 122.446 102.169 120.707 102.169 118.562C102.169 116.417 79.2973 114.678 51.0843 114.678C22.8712 114.678 0 116.417 0 118.562C0 120.707 22.8712 122.446 51.0843 122.446Z" fill="#E6E6E6"/>
<path d="M190.937 118.554C190.769 124.793 189.721 130.978 187.822 136.927C187.779 137.065 187.733 137.201 187.688 137.339H176.064C176.076 137.215 176.089 137.077 176.101 136.927C176.876 128.045 181.345 73.9889 176.002 64.7447C176.469 65.4946 191.838 90.3326 190.937 118.554Z" fill="#E6E6E6"/>
<path d="M190.065 136.927C189.967 137.065 189.866 137.203 189.763 137.339H181.043C181.109 137.221 181.186 137.083 181.274 136.927C182.715 134.335 186.979 126.586 190.937 118.554C195.19 109.921 199.093 100.961 198.764 97.7186C198.865 98.45 201.808 120.746 190.065 136.927Z" fill="#E6E6E6"/>
<path d="M108.574 127.804C108.659 130.971 109.191 134.11 110.155 137.129C110.177 137.199 110.2 137.268 110.223 137.339H116.123C116.117 137.276 116.111 137.206 116.104 137.129C115.711 132.621 113.443 105.183 116.155 100.491C115.917 100.872 108.117 113.479 108.574 127.804Z" fill="#E6E6E6"/>
<path d="M109.017 137.129C109.066 137.2 109.118 137.27 109.17 137.339H113.596C113.563 137.279 113.524 137.209 113.479 137.129C112.748 135.814 110.583 131.881 108.574 127.804C106.415 123.422 104.435 118.874 104.601 117.228C104.55 117.599 103.056 128.916 109.017 137.129Z" fill="#E6E6E6"/>
<path d="M116.105 59.2237C116.105 59.2237 106.248 68.8527 110.387 70.0317C114.527 71.2108 119.259 61.1888 119.259 61.1888L116.105 59.2237Z" fill="#A0616A"/>
<path d="M125.961 91.6476L124.778 97.1499L133.65 97.5429L132.27 91.6476H125.961Z" fill="#A0616A"/>
<path d="M153.955 125.644L152.772 131.146L161.644 131.539L160.264 125.644H153.955Z" fill="#A0616A"/>
<path d="M138.381 54.9005L139.17 58.0447C139.17 58.0447 117.287 53.7215 118.47 64.726C119.653 75.7304 124.779 86.3419 124.779 86.3419C124.779 86.3419 124.384 89.879 125.173 90.4686C125.961 91.0581 125.173 93.0232 125.173 93.0232C125.173 93.0232 132.467 94.0057 132.664 92.2372C132.77 91.0548 132.703 89.8634 132.467 88.7C132.467 88.7 132.861 88.7 132.467 86.7349C132.073 84.7698 130.48 68.9219 129.297 66.7603C129.297 66.7603 139.761 74.7479 145.281 73.7653C145.281 73.7653 144.492 81.6257 147.647 92.0406C150.801 102.456 150.801 103.635 150.801 103.635C150.801 103.635 154.546 123.482 153.561 125.84L153.364 126.823H160.658C160.658 126.823 160.066 116.408 160.658 115.032C161.249 113.657 161.249 101.866 157.898 95.9708C155.524 91.796 155.966 79.6911 157.265 74.9065C158.355 70.8886 158.63 67.7961 157.991 63.6829C157.308 59.2841 155.267 56.9848 152.772 54.9005H138.381Z" fill="#2F2E41"/>
<path d="M144.197 25.3259C148.116 25.3259 151.294 22.1587 151.294 18.2516C151.294 14.3446 148.116 11.1773 144.197 11.1773C140.277 11.1773 137.1 14.3446 137.1 18.2516C137.1 22.1587 140.277 25.3259 144.197 25.3259Z" fill="#A0616A"/>
<path d="M142.324 23.2626C142.324 23.2626 144.493 29.5509 144.296 30.7299C144.098 31.909 150.604 28.3718 150.604 28.3718C150.604 28.3718 148.041 22.0835 148.83 20.315L142.324 23.2626Z" fill="#A0616A"/>
<path d="M150.209 26.2102L143.309 28.9614L143.704 31.3195C143.704 31.3195 143.112 32.1055 143.309 32.4985C143.507 32.8915 140.747 34.4636 141.141 35.0531C141.535 35.6427 138.775 38.0008 138.972 38.5903C139.169 39.1798 132.664 42.717 136.212 49.5948C136.212 49.5948 138.052 51.9789 137.822 54.7982C137.814 54.8973 137.803 54.9969 137.79 55.097C137.395 58.0446 152.772 54.704 152.772 54.704V51.3633C152.772 51.3633 154.152 50.7738 153.955 48.2192C153.758 45.6646 152.575 46.8437 153.955 45.4681C155.335 44.0925 155.335 44.289 155.138 43.11C155.059 42.6392 155.043 40.9462 155.052 39.0823C155.071 35.144 153.784 31.31 151.392 28.1753L150.209 26.2102Z" fill="#6C63FF"/>
<path d="M146.464 31.3195L133.65 44.682L114.922 59.4202L119.062 62.7609L153.561 39.7693C153.561 39.7693 156.518 27.1928 146.464 31.3195Z" fill="#6C63FF"/>
<path d="M126.553 94.5953C126.553 94.5953 125.173 92.2372 124.187 93.0232L117.287 98.5255C117.287 98.5255 105.065 102.063 116.893 104.814C116.893 104.814 123.399 105.796 124.779 104.814C126.159 103.831 128.327 104.028 128.918 104.421C129.51 104.814 137.001 104.224 137.001 102.652C137.001 101.08 132.869 94.2094 132.869 94.2094C132.869 94.2094 130.496 96.9534 126.553 94.5953Z" fill="#2F2E41"/>
<path d="M154.547 128.591C154.547 128.591 153.167 126.233 152.181 127.019L145.281 132.521C145.281 132.521 133.059 136.059 144.887 138.81C144.887 138.81 151.393 139.792 152.773 138.81C154.153 137.827 156.321 138.024 156.913 138.417C157.504 138.81 164.995 138.22 164.995 136.648C164.995 135.076 160.864 128.205 160.864 128.205C160.864 128.205 158.49 130.949 154.547 128.591Z" fill="#2F2E41"/>
<path d="M135.691 15.4461C135.691 15.4461 136.891 4.93156 147.154 7.91697C147.154 7.91697 154.415 6.4449 156.979 15.4839L159.582 24.9605L158.391 24.3434L157.864 25.5517L155.962 26.0706L155.114 24.4685L154.756 26.4406L141.625 29.0869C141.625 29.0869 146.066 24.0292 146.034 16.6216L144.726 18.0535L135.691 15.4461Z" fill="#2F2E41"/>
<path d="M65.1715 6.89633H48.7559V27.3017H65.1715V6.89633Z" fill="#2F2E41"/>
<path d="M35.2014 102.08L32.9629 110.292L36.6939 113.029L37.6886 112.282L39.4297 103.822L35.2014 102.08Z" fill="#FFB8B8"/>
<path d="M63.3067 101.333L62.5605 111.287H67.2863V102.08L63.3067 101.333Z" fill="#FFB8B8"/>
<path d="M48.3828 38.3753V44.3476L57.5857 45.8406L65.5446 42.6058L64.0523 38.8729L48.3828 38.3753Z" fill="#FFB8B8"/>
<path d="M55.8447 43.3522L47.8856 41.8591L45.8958 58.0341L40.9214 78.1906C40.9214 78.1906 33.4597 95.361 34.4546 99.3425L34.9521 100.587L34.4546 102.826L39.4291 104.817L41.4188 101.582C41.4188 101.582 42.9112 103.822 45.3984 99.0937C47.8856 94.3656 58.332 65.0018 58.332 65.0018L60.073 69.9787C59.6226 71.514 59.5375 73.1329 59.8243 74.7068C60.3217 77.1952 60.8192 84.9094 60.8192 84.9094C60.8192 84.9094 58.0832 98.3471 61.8141 99.3425L62.5602 102.329L67.7834 102.826L68.7783 99.8402C68.7783 99.8402 73.7527 98.0983 72.5091 89.3887C71.2655 80.6791 70.7681 52.0618 70.7681 52.0618L65.8681 39.9743L55.8447 43.3522Z" fill="#2F2E41"/>
<path d="M34.4551 109.794C34.4551 109.794 33.2115 108.799 32.7141 109.048C32.2166 109.296 26.9934 116.015 26.9934 116.015C26.9934 116.015 21.5215 120.246 25.5011 120.743C29.4807 121.241 40.4244 115.766 40.4244 114.522C40.4244 113.278 38.1249 110.162 38.1249 110.162C38.1249 110.162 36.4449 111.536 34.4551 109.794Z" fill="#2F2E41"/>
<path d="M62.0628 109.048C62.0628 109.048 66.5397 108.769 67.2859 109.531C68.0321 110.292 67.7834 114.024 67.7834 114.024C67.7834 114.024 68.2808 120.743 64.3013 120.743C60.3217 120.743 61.3166 116.264 61.3166 116.264L62.0628 109.048Z" fill="#2F2E41"/>
<path d="M57.5852 16.4769C61.0194 16.4769 63.8033 13.6916 63.8033 10.2557C63.8033 6.81988 61.0194 4.03458 57.5852 4.03458C54.1511 4.03458 51.3672 6.81988 51.3672 10.2557C51.3672 13.6916 54.1511 16.4769 57.5852 16.4769Z" fill="#FFB8B8"/>
<path d="M53.4818 14.1129C53.4818 14.1129 56.9639 18.3432 49.9997 21.5782C43.0354 24.8132 54.9741 38.2509 54.9741 38.2509C54.9741 38.2509 68.9025 33.0251 67.6589 22.8225C67.6589 22.8225 59.2024 21.3294 61.1922 14.3617L53.4818 14.1129Z" fill="#FFB8B8"/>
<path d="M49.7506 21.3294C49.7506 21.3294 44.03 20.5828 43.7813 25.3109C43.5326 30.039 43.7813 41.4859 43.7813 41.4859C43.7813 41.4859 41.294 51.4397 42.5377 60.1493C42.5377 60.1493 41.0453 70.352 45.0249 69.8543C49.0044 69.3566 46.0198 59.4028 46.0198 59.4028L47.7608 43.2278L47.0147 31.2832L50.248 24.0667L49.7506 21.3294Z" fill="#FFB8B8"/>
<path d="M66.2149 22.4287C66.2149 22.4287 71.6387 22.3247 71.8874 26.3063C72.1361 30.2878 70.1464 42.4812 70.1464 42.4812L67.1617 43.9743L64.4258 35.5136L66.2149 22.4287Z" fill="#FFB8B8"/>
<path d="M67.7838 42.8545L67.2864 44.0988L68.7787 47.8315C68.7787 47.8315 62.8094 52.5595 63.3068 53.5549C63.8042 54.5503 66.5402 52.3107 66.5402 52.3107L70.5197 54.3014C70.5197 54.3014 73.7531 50.8176 72.2608 47.5826C71.4341 45.8435 70.7425 44.0437 70.192 42.1991C70.192 42.1991 68.0325 42.108 67.7838 42.8545Z" fill="#FFB8B8"/>
<path d="M48.6319 20.4584L47.8857 28.6703C47.8857 28.6703 44.4036 32.1541 48.3831 36.8822L47.8857 40.6149C47.8857 40.6149 57.0884 40.1172 58.8295 40.6149C60.5705 41.1126 65.9474 40.2142 65.9474 40.2142L66.0424 37.3799C66.0424 37.3799 68.5296 33.8961 67.7834 28.6703C67.0373 23.4446 67.7834 21.7026 67.7834 21.7026L66.0424 21.4538C66.0424 21.4538 64.9231 29.0436 57.2128 29.7901C57.2128 29.7901 47.637 30.6611 50.3729 20.4584L48.6319 20.4584Z" fill="#E6E6E6"/>
<path d="M58.2075 0.177531C58.2075 0.177531 51.7408 -0.223565 50.2484 3.79978C48.7561 7.82313 46.1445 9.93536 46.1445 9.93536C46.1445 9.93536 42.0307 12.7964 44.0876 17.9038C44.0876 17.9038 37.688 22.2065 41.9163 26.0287C41.9163 26.0287 41.6675 29.8509 44.1548 32.466C44.1548 32.466 46.1445 33.4719 45.3984 34.0754C44.6522 34.6788 50.3728 34.2765 49.8754 28.845C49.3779 23.4135 52.7357 19.5875 52.7357 19.5875C52.7357 19.5875 49.5023 12.5454 50.9946 10.1314C51.9007 8.66572 52.2898 7.57276 53.0419 6.9402C53.4609 6.59622 53.8494 6.21691 54.2031 5.80646C54.5367 5.38368 54.9908 5.07141 55.5058 4.91073C56.0207 4.75004 56.5724 4.74846 57.0883 4.90619C59.3268 5.50969 59.8242 7.32019 59.8242 7.32019C59.8242 7.32019 61.4409 11.6453 64.1769 13.6569C66.9128 15.6686 62.0627 19.189 62.0627 19.189C62.0627 19.189 62.9058 23.3338 65.0959 25.7876C67.2859 28.2415 64.4647 30.3805 64.3012 30.6555C63.9282 31.2833 62.4382 35.2472 68.5929 35.2648C68.5929 35.2648 70.0218 32.2648 72.0116 30.4544C74.0014 28.6439 72.5091 23.4135 72.5091 23.4135C72.5091 23.4135 75.4937 21.603 72.2604 17.1774C72.2604 17.1774 73.2552 13.154 70.5193 10.5389C70.5193 10.5389 66.6641 -1.23063 58.2075 0.177531Z" fill="#2F2E41"/>
<path d="M50.8708 11.1267C51.2142 11.1267 51.4926 10.6811 51.4926 10.1313C51.4926 9.58158 51.2142 9.13593 50.8708 9.13593C50.5274 9.13593 50.249 9.58158 50.249 10.1313C50.249 10.6811 50.5274 11.1267 50.8708 11.1267Z" fill="#FFB8B8"/>
<path d="M21.1709 112.776H5.90723V114.54H21.1709V112.776Z" fill="#2F2E41"/>
<path d="M21.171 118.95C21.9041 118.95 22.4983 116.58 22.4983 113.658C22.4983 110.735 21.9041 108.365 21.171 108.365C20.438 108.365 19.8438 110.735 19.8438 113.658C19.8438 116.58 20.438 118.95 21.171 118.95Z" fill="#2F2E41"/>
<path d="M5.90736 118.95C6.6404 118.95 7.23464 116.58 7.23464 113.658C7.23464 110.735 6.6404 108.365 5.90736 108.365C5.17432 108.365 4.58008 110.735 4.58008 113.658C4.58008 116.58 5.17432 118.95 5.90736 118.95Z" fill="#2F2E41"/>
<path d="M17.5469 112.776H2.2832V114.54H17.5469V112.776Z" fill="#2F2E41"/>
<path d="M17.548 118.95C18.281 118.95 18.8753 116.58 18.8753 113.658C18.8753 110.735 18.281 108.365 17.548 108.365C16.8149 108.365 16.2207 110.735 16.2207 113.658C16.2207 116.58 16.8149 118.95 17.548 118.95Z" fill="#2F2E41"/>
<path d="M2.28431 118.95C3.01735 118.95 3.6116 116.58 3.6116 113.658C3.6116 110.735 3.01735 108.365 2.28431 108.365C1.55128 108.365 0.957031 110.735 0.957031 113.658C0.957031 116.58 1.55128 118.95 2.28431 118.95Z" fill="#2F2E41"/>
<path d="M191.191 130.557H175.928V132.321H191.191V130.557Z" fill="#2F2E41"/>
<path d="M191.192 136.731C191.925 136.731 192.519 134.362 192.519 131.439C192.519 128.516 191.925 126.147 191.192 126.147C190.459 126.147 189.864 128.516 189.864 131.439C189.864 134.362 190.459 136.731 191.192 136.731Z" fill="#2F2E41"/>
<path d="M175.928 136.731C176.661 136.731 177.255 134.362 177.255 131.439C177.255 128.516 176.661 126.147 175.928 126.147C175.195 126.147 174.601 128.516 174.601 131.439C174.601 134.362 175.195 136.731 175.928 136.731Z" fill="#2F2E41"/>
<path d="M0.559906 84.0144C-10.2468 82.5408 -20.9846 80.131 -31.1687 76.214C-39.6453 72.9538 -48.3155 67.4883 -57.3105 65.9892" stroke="black" stroke-linecap="round" stroke-linejoin="round"/>
</g>
<defs>
<clipPath id="clip0">
<rect width="200" height="141" fill="white" transform="translate(0 0.0605469)"/>
</clipPath>
</defs>
</svg>
